<svg xmlns="http://www.w3.org/2000/svg" width="15.836" height="20"><g class="layer" transform="translate(-.774 -.974) scale(.05128)"><g stroke-linecap="null" stroke-linejoin="null" stroke-width="5"><path fill="#0ff" stroke="#00f" d="M118 222.5h100v184H118z"/><path fill="#ffaa56" stroke="red" d="M118 125h100v100H118z"/></g><g fill="#ff0"><path d="M158 19h20v84h-20zM37.73 59.623L51.873 45.48l59.397 59.397-14.143 14.143zM284.377 45.48l14.143 14.143-59.397 59.397-14.143-14.143zM297.02 282.377l-14.143 14.143-59.397-59.397 14.143-14.143zM50.373 296.52L36.23 282.377l59.397-59.397 14.143 14.143zM323.849 166.89l.052 20-84 .22-.052-20zM99.099 165.14l.052 20-84 .22-.052-20z"/></g></g><g transform="translate(-.774 -.974) scale(.05128)" class="layer"><g stroke-linejoin="null" stroke-linecap="null" stroke-width="5"><path fill="#0ff" stroke="#00f" d="M118 222.5h100v184H118z"/><path fill="#ffaa56" stroke="red" d="M118 125h100v100H118z"/></g><g fill="#ff0"><path d="M158 19h20v84h-20zM37.73 59.623L51.873 45.48l59.397 59.397-14.143 14.143zM284.377 45.48l14.143 14.143-59.397 59.397-14.143-14.143zM297.02 282.377l-14.143 14.143-59.397-59.397 14.143-14.143zM50.373 296.52L36.23 282.377l59.397-59.397 14.143 14.143zM323.849 166.89l.052 20-84 .22-.052-20zM99.099 165.14l.052 20-84 .22-.052-20z"/></g></g></svg>