<?xml version="1.0" encoding="utf-8"?>
<svg width="10" height="22" 
  xmlns="http://www.w3.org/2000/svg">
  <g>
    <g>
      <g transform="matrix(0.491595, 0, 0, 0.491595, 95.133018, 29.113455)">
        <g transform="matrix(0.200018, 0, 0, 0.200018, -224.84404, -64.573769)">
          <path style="stroke: rgb(0, 0, 0); fill: rgb(216, 36, 48); stroke-width: 0px; stroke-opacity: 0;" d="M 189.861 99.091 C 189.861 99.091 189.745 90 199.998 90 C 209.998 90 208.982 99.533 208.982 99.533 L 209.682 210.002 C 209.682 210.002 209.998 219.985 199.998 219.985 C 190.001 219.985 190.454 210.354 190.454 210.354 L 189.861 99.091 Z"/>
          <path d="M 499 262.482 L 501.943 270.949 L 510.905 271.132 L 503.762 276.547 L 506.358 285.127 L 499 280.007 L 491.642 285.127 L 494.238 276.547 L 487.095 271.132 L 496.057 270.949 Z" style="fill: rgb(216, 36, 48); stroke-width: 0px; stroke-opacity: 0;" transform="matrix(0.999654, 0.026307, -0.026307, 0.999654, -292.305104, -217.940879)" shape="star 499 275 12.518 12.518 0.4 5 1@11f65c18"/>
        </g>
      </g>
    </g>
  </g>
</svg>