<!-- Generated by IcoMoon.io -->
<svg version="1.1"
    xmlns="http://www.w3.org/2000/svg" width="24" height="24" viewBox="0 0 24 24">
    <title>spinner11</title>
    <path fill="#424242" d="M24 9h-9l3.364-3.364c-1.7-1.7-3.96-2.636-6.364-2.636s-4.664 0.936-6.364 2.636c-1.7 1.7-2.636 3.96-2.636 6.364s0.936 4.664 2.636 6.364c1.7 1.7 3.96 2.636 6.364 2.636s4.664-0.936 6.364-2.636c0.142-0.142 0.278-0.288 0.409-0.438l2.258 1.975c-2.2 2.512-5.43 4.098-9.031 4.098-6.627 0-12-5.373-12-12s5.373-12 12-12c3.314 0 6.313 1.344 8.485 3.515l3.515-3.515v9z"></path>
</svg>
