<?xml version="1.0" encoding="UTF-8" standalone="no"?>
<svg
   xmlns:dc="http://purl.org/dc/elements/1.1/"
   xmlns:cc="http://creativecommons.org/ns#"
   xmlns:rdf="http://www.w3.org/1999/02/22-rdf-syntax-ns#"
   xmlns:svg="http://www.w3.org/2000/svg"
   xmlns="http://www.w3.org/2000/svg"
   xmlns:sodipodi="http://sodipodi.sourceforge.net/DTD/sodipodi-0.dtd"
   xmlns:inkscape="http://www.inkscape.org/namespaces/inkscape"
   width="24"
   height="24"
   version="1.1"
   id="svg8"
   sodipodi:docname="useradd_dark.svg"
   inkscape:version="0.92.4 5da689c313, 2019-01-14">
  <metadata
     id="metadata14">
    <rdf:RDF>
      <cc:Work
         rdf:about="">
        <dc:format>image/svg+xml</dc:format>
        <dc:type
           rdf:resource="http://purl.org/dc/dcmitype/StillImage" />
      </cc:Work>
    </rdf:RDF>
  </metadata>
  <defs
     id="defs12" />
  <sodipodi:namedview
     pagecolor="#ffffff"
     bordercolor="#666666"
     borderopacity="1"
     objecttolerance="10"
     gridtolerance="10"
     guidetolerance="10"
     inkscape:pageopacity="0"
     inkscape:pageshadow="2"
     inkscape:window-width="1920"
     inkscape:window-height="1015"
     id="namedview10"
     showgrid="false"
     inkscape:zoom="9.8333333"
     inkscape:cx="12"
     inkscape:cy="12"
     inkscape:window-x="0"
     inkscape:window-y="0"
     inkscape:window-maximized="1"
     inkscape:current-layer="svg8" />
  <g
     id="g6"
     transform="matrix(0.81,0,0,0.81,2.28,2.28)"
     style="fill:#c5c5c5">
    <path
       d="m 9.3,16.725 c 0,-3.19 2.022,-5.917 4.852,-6.965 A 6.158,6.158 0 0 0 14.7,7.275 C 14.7,3.92 14.7,1.2 10.65,1.2 6.6,1.2 6.6,3.92 6.6,7.275 c 0,2.09 1.213,4.179 2.7,5.017 v 1.113 C 4.72,13.779 1.2,16.029 1.2,18.75 H 9.58 A 7.41,7.41 0 0 1 9.3,16.725 Z"
       id="path2"
       inkscape:connector-curvature="0" />
    <path
       d="m 16.725,10.65 a 6.075,6.075 0 1 0 0,12.15 6.075,6.075 0 0 0 0,-12.15 z M 20.1,17.4 h -2.7 v 2.7 h -1.35 v -2.7 h -2.7 v -1.35 h 2.7 v -2.7 h 1.35 v 2.7 h 2.7 z"
       id="path4"
       inkscape:connector-curvature="0" />
  </g>
</svg>
